<svg version="1.2" xmlns="http://www.w3.org/2000/svg" viewBox="0 0 400 400">
  <title>Clipboard</title>
  <path fill="currentColor" d="m342.9 92.9v278.5c0 15.8-12.8 28.6-28.6 28.6h-228.6c-15.8 0-28.6-12.8-28.6-28.6v-278.5c0-15.8 12.8-28.6 28.6-28.6h36.7c2.2-8.6 8.5-15.7 17-19.2l18-7.2c2.5-21.3 20.7-37.9 42.6-37.9 21.9 0 40.1 16.6 42.6 37.9l18 7.2c8.5 3.5 14.8 10.6 17 19.2h36.7c15.8 0 28.6 12.8 28.6 28.6zm-205.1-28.6c-1.4 2.1-2.1 4.7-2.1 7.3v21.3h128.6v-21.3c0-2.6-0.7-5.2-2.1-7.3-1.5-2.7-3.9-4.7-6.9-5.9l-22.2-8.9c-2.7-1.1-4.5-3.7-4.5-6.6 0-15.8-12.8-28.6-28.6-28.6-15.8 0-28.6 12.8-28.6 28.6 0 2.9-1.8 5.5-4.5 6.6l-22.2 8.9c-3 1.2-5.4 3.2-6.9 5.9zm190.8 28.6c0-7.9-6.5-14.3-14.3-14.3h-35.7v14.3c0 7.8-6.5 14.2-14.3 14.2h-128.6c-7.8 0-14.3-6.4-14.3-14.2v-14.3h-35.7c-7.8 0-14.3 6.4-14.3 14.3v278.5c0 7.9 6.5 14.3 14.3 14.3h228.6c7.8 0 14.3-6.4 14.3-14.3z"/>
  <path fill="currentColor" d="m200 57.1c-7.9 0-14.3-6.3-14.3-14.2 0-7.9 6.4-14.3 14.3-14.3 7.9 0 14.3 6.4 14.3 14.3 0 7.9-6.4 14.2-14.3 14.2z"/>
  <path fill="currentColor" d="m292.9 164.3h-185.8c-3.9 0-7.1 3.2-7.1 7.1 0 4 3.2 7.2 7.1 7.2h185.8c3.9 0 7.1-3.2 7.1-7.2 0-3.9-3.2-7.1-7.1-7.1z"/>
  <path fill="currentColor" d="m292.9 214.3h-185.8c-3.9 0-7.1 3.2-7.1 7.1 0 4 3.2 7.2 7.1 7.2h185.8c3.9 0 7.1-3.2 7.1-7.2 0-3.9-3.2-7.1-7.1-7.1z"/>
  <path fill="currentColor" d="m292.9 264.3h-185.8c-3.9 0-7.1 3.2-7.1 7.1 0 4 3.2 7.2 7.1 7.2h185.8c3.9 0 7.1-3.2 7.1-7.2 0-3.9-3.2-7.1-7.1-7.1z"/>
  <path fill="currentColor" d="m292.9 314.3h-185.8c-3.9 0-7.1 3.2-7.1 7.1 0 4 3.2 7.2 7.1 7.2h185.8c3.9 0 7.1-3.2 7.1-7.2 0-3.9-3.2-7.1-7.1-7.1z"/>
</svg>
