<svg version="1.2" xmlns="http://www.w3.org/2000/svg" viewBox="0 0 400 400">
  <title>Code</title>
  <path fill="currentColor" d="m118.6 86.3c-4.4-4.2-11.4-4-15.5 0.4l-99.9 105.7c-4 4.3-4 10.9 0 15.1l99.9 105.8c2.1 2.3 5 3.4 7.9 3.4 2.8 0 5.5-1 7.6-3 4.4-4.1 4.6-11.1 0.4-15.5l-92.7-98.2 92.7-98.2c4.2-4.4 4-11.4-0.4-15.5zm278.2 106.2l-99.9-105.8c-4.1-4.4-11.1-4.6-15.5-0.4-4.4 4.1-4.6 11.1-0.4 15.5l92.7 98.2-92.7 98.2c-4.2 4.4-4 11.4 0.4 15.5 2.1 2 4.8 3 7.5 3 3 0 5.9-1.1 8-3.4l99.9-105.7c4-4.2 4-10.9 0-15.1zm-152.8-107.1c-5.7-2.2-12 0.6-14.2 6.3l-80.1 208.7c-2.2 5.7 0.6 12 6.3 14.2 1.3 0.5 2.6 0.7 3.9 0.7 4.5 0 8.6-2.6 10.3-7l80.1-208.7c2.2-5.7-0.7-12-6.3-14.2z"/>
</svg>
