<svg version="1.2"
  xmlns="http://www.w3.org/2000/svg" viewBox="0 0 400 400">
  <title>Grid</title>
  <path fill="currentColor" d="m13.3 0h373.3q0.7 0 1.4 0 0.7 0.1 1.3 0.3 0.5 0.1 0.9 0.3 0.7 0.1 1.3 0.4 0.2 0 0.4 0.1 0.4 0.2 0.8 0.4 0.2 0.1 0.3 0.2 0.4 0.2 0.9 0.4 0.2 0.1 0.4 0.3 0.1 0.1 0.2 0.2 0.3 0.2 0.5 0.3 0.1 0.2 0.2 0.3 0.4 0.3 0.7 0.6v0.1q0.2 0.1 0.3 0.1 0.9 0.9 1.5 1.8 0.1 0.2 0.2 0.3 0.4 0.6 0.7 1.3 0.3 0.6 0.5 1.2 0.2 0.4 0.3 0.9 0.1 0.2 0.2 0.4 0.1 0.6 0.2 1.2 0.1 0.4 0.2 0.9v0.1q0 0.6 0 1.2v123.1q0 0.7 0 1.4 0 0.5 0 1v122.6q0 0.4 0 0.8 0 0.5 0 1v123.5q0 0.5 0 0.9 0 0.2 0 0.3v0.2q-0.1 0.4-0.2 0.9 0 0.3-0.1 0.6-0.1 0.5-0.3 1v0.1q-0.1 0.2-0.1 0.4-0.2 0.4-0.3 0.7-0.2 0.5-0.4 1-0.1 0-0.2 0.1v0.1q-0.2 0.5-0.5 0.9-0.2 0.2-0.3 0.4-0.3 0.4-0.5 0.7-0.1 0.1-0.2 0.3-0.3 0.3-0.7 0.7-0.4 0.5-1 0.9 0 0.1-0.1 0.2-0.1 0-0.1 0.1-0.2 0.1-0.3 0.1-0.3 0.3-0.6 0.5-0.1 0-0.2 0.1-0.6 0.4-1.2 0.7-1 0.5-2.2 0.8-0.1 0.1-0.3 0.2-0.8 0.2-1.8 0.2-0.3 0.1-0.7 0.2h-0.1q-0.5 0-1 0h-373.3q-0.5 0-0.9 0-0.5-0.1-0.9-0.2-0.2 0.1-0.4 0-0.2 0-0.4-0.1-0.5 0-1-0.1-0.1-0.1-0.3-0.2-0.4-0.1-0.9-0.2-0.2-0.1-0.3-0.2-0.5-0.2-1-0.4-0.1-0.1-0.3-0.1-0.4-0.3-0.8-0.6-0.1-0.1-0.3-0.1 0-0.1-0.1-0.2-0.1 0-0.1-0.1-0.5-0.3-0.9-0.6-0.3-0.3-0.7-0.7-0.1-0.1-0.2-0.2-0.3-0.4-0.6-0.7-0.1-0.2-0.3-0.3-0.1-0.1-0.1-0.3-0.1 0-0.2-0.1-0.2-0.2-0.4-0.4-0.3-0.6-0.5-1.1-0.3-0.6-0.6-1.2-0.1-0.2-0.1-0.4-0.2-0.4-0.4-0.8v-0.1q-0.2-0.7-0.3-1.3-0.1-0.1-0.2-0.3 0-0.2 0-0.4 0-0.1 0-0.3 0-0.3-0.1-0.7 0-0.4 0-0.9v-123.1q0-0.7 0-1.4 0-0.6 0-1.2v-121.8q0-0.7 0-1.4 0-0.4 0-0.8v-123.7q0-1.7 0.4-3.4 0.4-1.3 1-2.5 0.3-0.7 0.7-1.3 0.4-0.5 0.8-1 0.4-0.5 0.9-1.1 0.4-0.4 0.9-0.8 0.5-0.4 1-0.8 0.6-0.4 1.2-0.7 0.6-0.3 1.2-0.6 0.6-0.3 1.2-0.5 1.3-0.4 2.6-0.6 0.7 0 1.4 0zm13.4 124.5h97.7v-97.8h-97.7zm124.4 0h97.8v-97.8h-97.8zm124.4 0h97.8v-97.8h-97.8zm-248.8 124.5h97.7v-97.8h-97.7zm124.4 0h97.8v-97.8h-97.8zm124.4 0h97.8v-97.8h-97.8zm-248.8 124.5h97.8v-97.8h-97.8zm124.4 0h97.8v-97.8h-97.8zm124.5 0h97.7v-97.8h-97.7z"/>
</svg>
