<svg version="1.2" xmlns="http://www.w3.org/2000/svg" viewBox="0 0 400 400">
  <title>Upload</title>
  <path fill="currentColor" d="m238.5 0c3.4 0 6.7 1.4 9.2 3.7 0.4 0.4 1 0.4 1.4 0.8l106.4 106.4c1.7 1.7 2.7 3.8 3.3 6.1 0.1 0.5 0.2 1 0.3 1.6 0 0.6 0.3 1.1 0.3 1.8v225.5c0 29.5-23.9 53.4-53.3 53.4h-212.8c-29.4 0-53.3-23.9-53.3-53.4v-292.6c0-29.4 23.9-53.3 53.3-53.3zm-171.8 53.3v292.6c0 14.8 12 26.8 26.7 26.8h212.7c14.7 0 26.7-12 26.7-26.8v-212.2h-53.5c-29.2 0-52.9-23.8-52.9-53v-54.1h-133c-14.7 0-26.7 12-26.7 26.7zm186.3 27.4c0 14.5 11.8 26.3 26.3 26.3h34.6c-18.5-18.4-42.9-42.7-60.9-60.6zm11.6 164c3.6 0 7.1 1.5 9.6 4.1l40.3 41.5-19 18.5-17.5-17.9v55.5h-26.6v-55l-16.4 17.3-19.3-18.3 39.3-41.5c2.4-2.6 5.9-4.2 9.6-4.2z"/>
</svg>
